<svg xmlns="http://www.w3.org/2000/svg" viewBox="0 0 1000 1000"><path d="M756.62,822.51H248.84a55.64,55.64,0,0,1-55.63-55.64V398H812.26v368.9A55.64,55.64,0,0,1,756.62,822.51Z" style="fill:#222"/><path d="M205.3,396.8H818.37a0,0,0,0,1,0,0v50.1a17.28,17.28,0,0,1-17.28,17.28H188a0,0,0,0,1,0,0v-50.1A17.28,17.28,0,0,1,205.3,396.8Z" style="fill:#2d2d2d"/><path d="M818.37,399l-45.76,65.13H726.26L773.6,396.8h44.77ZM684,396.8l-47.34,67.37H683l47.34-67.37Zm-89.59,0-47.34,67.37h46.35l47.34-67.37Zm-89.83,0-47.34,67.37H503.6l47.34-67.37Zm-90,0-47.34,67.37h46.35L461,396.8Zm-89.59,0-47.34,67.37H324l47.34-67.37Zm-90,0-47,66.89v.48h46l47.33-67.37Z" style="fill:#fff"/><path d="M178.94,253H753.69A54.61,54.61,0,0,1,808.3,307.6V322a0,0,0,0,1,0,0H233.55a54.61,54.61,0,0,1-54.61-54.61V253a0,0,0,0,1,0,0Z" transform="translate(-60.14 147.27) rotate(-16.01)" style="fill:#2d2d2d"/><path d="M763.77,245.9l-66.55-52.71,44.46-12.76,62.88,49.8,1.05,3.66ZM722.4,257.77l-66.55-52.71-44.47,12.75,66.55,52.71Zm-86.27,24.75-66.55-52.71-44.47,12.75,66.55,52.71ZM550.45,307.1,483.9,254.39l-44.47,12.75L506,319.85Zm-85.9,24.64L398,279l-44.47,12.76,66.55,52.71Zm-86.67,24.87L311.33,303.9l-44.47,12.75,66.55,52.71Zm-86.4,24.78-66.56-52.71-43.29,12.43.46,1.62L247,394.15Z" style="fill:#fff"/><polygon points="322.16 456.62 194.14 456.62 194.14 337.1 254.98 337.1 322.16 405.46 322.16 456.62" style="fill:#222"/><circle cx="287.02" cy="428.27" r="9.09" style="fill:#808285"/><circle cx="224.1" cy="428.27" r="9.09" style="fill:#808285"/><circle cx="224.1" cy="359.61" r="9.09" style="fill:#808285"/><circle cx="365.99" cy="599.84" r="60.24" style="fill:#fff"/><circle cx="637.99" cy="599.84" r="60.24" style="fill:#fff"/><path d="M407.33,700.08c-3,22.71,36.13,61.66,93.1,61.66,60.81,0,93-44.47,93-83.57C526.81,693.8,467,702.4,407.33,700.08Z" style="fill:#fff"/></svg>