<svg xmlns="http://www.w3.org/2000/svg" xmlns:xlink="http://www.w3.org/1999/xlink" viewBox="0 0 800 800"><defs><linearGradient id="a" x1="193.98" y1="728.99" x2="574.24" y2="728.99" gradientUnits="userSpaceOnUse"><stop offset="0.06" stop-color="#200041"/><stop offset="0.26" stop-color="#210243"/><stop offset="0.36" stop-color="#25084b"/><stop offset="0.43" stop-color="#2c1358"/><stop offset="0.47" stop-color="#311b61"/><stop offset="0.48" stop-color="#351f65"/><stop offset="0.5" stop-color="#422c73"/><stop offset="0.51" stop-color="#584188"/><stop offset="0.52" stop-color="#765fa7"/><stop offset="0.53" stop-color="#8770b8"/><stop offset="0.54" stop-color="#7e67ae"/><stop offset="0.56" stop-color="#5c468d"/><stop offset="0.59" stop-color="#442e75"/><stop offset="0.61" stop-color="#362066"/><stop offset="0.63" stop-color="#311b61"/><stop offset="0.67" stop-color="#2a1155"/><stop offset="0.75" stop-color="#230446"/><stop offset="0.81" stop-color="#200041"/><stop offset="1" stop-color="#200041"/></linearGradient><linearGradient id="b" x1="193.98" y1="671" x2="574.24" y2="671" xlink:href="#a"/><linearGradient id="c" x1="295.73" y1="695.45" x2="468.11" y2="600.09" gradientUnits="userSpaceOnUse"><stop offset="0" stop-color="#311b61"/><stop offset="0.2" stop-color="#290f52"/><stop offset="0.49" stop-color="#200041"/><stop offset="1" stop-color="#0f001f"/></linearGradient><linearGradient id="d" x1="387.15" y1="650.37" x2="420.99" y2="593.63" gradientUnits="userSpaceOnUse"><stop offset="0" stop-color="#fff"/><stop offset="1"/></linearGradient><radialGradient id="e" cx="388.28" cy="727.47" r="135.29" gradientUnits="userSpaceOnUse"><stop offset="0" stop-color="#af8afc"/><stop offset="1" stop-color="#10054d"/></radialGradient><linearGradient id="f" x1="666.21" y1="762.42" x2="84.29" y2="-42.81" xlink:href="#c"/><linearGradient id="g" x1="162.98" y1="37.38" x2="658.08" y2="781.86" gradientUnits="userSpaceOnUse"><stop offset="0.01" stop-color="#9f19ab"/><stop offset="0.43" stop-color="#5f27bd"/><stop offset="0.9" stop-color="#3d065f"/></linearGradient><linearGradient id="h" x1="789.84" y1="779.91" x2="331.81" y2="48.03" xlink:href="#a"/><radialGradient id="i" cx="659.91" cy="363.12" r="77.97" xlink:href="#e"/></defs><g style="isolation:isolate"><path d="M540,664.3c0,5.11-3.7,10.49-11,14.69L423.79,779.45c-13.32,7.69-33.46,8.52-45,1.86L187.32,670.11c-5.58-3.23-8.09-7.61-7.73-12.14a7.33,7.33,0,0,0-.06.79v14.47c.08,4.15,2.65,8.11,7.79,11.07L378.8,795.51c11.53,6.66,31.67,5.82,45-1.86L529,693.19c7.39-4.26,11.12-9.74,11-14.92C540,677.4,540.18,667.87,540,664.3Z" style="opacity:0.2;fill:url(#a)"/><g style="opacity:0.2"><path d="M398.34,793.68c-10.51,0-20-2.3-27.58-6.65L179.28,675.82c-10.06-5.81-15.82-15-15.82-25.2,0-11.19,6.94-21.63,19-28.62l168-64.64A68.06,68.06,0,0,1,384,548.85c10.51,0,20,2.3,27.58,6.65l128.69,75.4c10.05,5.8,15.82,15,15.82,25.2,0,11.19-6.94,21.62-19,28.61L431.82,785.16C422.31,790.66,410.42,793.68,398.34,793.68Z" style="opacity:0"/><path d="M183.24,623.27l168.05-64.64c9.47-5.47,21.39-8.4,33.33-8.28a62.77,62.77,0,0,1,14.53,1.86,53.92,53.92,0,0,1,12.76,5.15l124.18,72.76c.12.07,3.71,2.19,3.8,2.27,9.83,5.89,14.31,15.1,13.78,25-.55,10.16-8.22,21.47-19.22,27.83L431.09,783.9c-9.28,5.36-20.91,8.3-32.68,8.31-10.24,0-19.58-2.21-26.92-6.45L180,674.55c-9.66-5.57-15.13-14.33-15.08-24C165,639.91,171.62,630,183.24,623.27Z" style="opacity:0.09090909361839311"/><path d="M184,624.54l168-64.65c9.43-5.44,21.38-8.29,33.18-8a62.63,62.63,0,0,1,14.39,2.09,61.52,61.52,0,0,1,12.61,5.3l123.51,72.36c.24.14,3.59,2.13,3.76,2.28,9.61,6,12.81,15.13,11.73,24.9-1,9.1-9.48,21.32-19.38,27L430.36,782.63c-9.06,5.24-20.42,8.1-31.87,8.12-10,0-19.12-2.12-26.27-6.25L180.74,673.29c-9.27-5.35-14.44-13.69-14.35-22.89C166.49,640.38,172.84,631,184,624.54Z" style="opacity:0.1818181839254169"/><path d="M184.7,625.8l168.05-64.64c9.39-5.42,21.37-8.18,33-7.82A61.09,61.09,0,0,1,400,555.65a71.51,71.51,0,0,1,12.45,5.44l122.84,72c.36.21,3.46,2.06,3.72,2.3,9.39,6.08,11.32,15.06,9.69,24.74-1.35,8-10.75,21.17-19.56,26.26l-99.55,95a63.52,63.52,0,0,1-31.07,7.92c-9.72,0-18.65-2-25.61-6.06L181.47,672c-8.87-5.12-13.75-13-13.61-21.72C168,640.86,174.06,631.94,184.7,625.8Z" style="opacity:0.2727272742324407"/><path d="M185.43,627.07l168.05-64.64c9.35-5.4,21.36-8.07,32.88-7.59a59.82,59.82,0,0,1,14.12,2.53,85.67,85.67,0,0,1,12.3,5.58L535,634.53c.47.27,3.33,2,3.68,2.32,9.17,6.17,11.94,15.62,7.65,24.59,0,7.12-12,21-19.73,25.47L428.9,780.1c-8.62,5-19.45,7.68-30.26,7.73-9.46,0-18.19-2-25-5.86L182.2,670.76c-8.47-4.89-13.06-12.38-12.87-20.57C169.52,641.34,175.28,632.93,185.43,627.07Z" style="opacity:0.36363636453946446"/><path d="M186.16,628.33l168-64.64c9.31-5.37,21.35-8,32.73-7.36a59.63,59.63,0,0,1,14,2.76,102.06,102.06,0,0,1,12.15,5.73L534.57,636c.59.34,3.2,1.94,3.64,2.34,8.95,6.25,11,15.77,5.61,24.44,0,6.1-13.3,20.86-19.9,24.67l-95.75,91.39c-8.39,4.84-19,7.47-29.46,7.53-9.19,0-17.72-1.87-24.3-5.67L182.93,669.49c-8.08-4.66-12.37-11.72-12.14-19.4C171,641.82,176.5,633.91,186.16,628.33Z" style="opacity:0.45454545484648823"/><path d="M186.89,629.6,354.94,565c9.27-5.35,21.34-7.85,32.58-7.13a58.71,58.71,0,0,1,13.85,3,130.73,130.73,0,0,1,12,5.87l120.82,70.79a41.87,41.87,0,0,1,3.62,2.35c8.72,6.35,10,15.93,3.55,24.29,0,5.09-14.56,20.72-20.06,23.89l-93.85,89.57c-8.17,4.72-18.47,7.27-28.65,7.34-8.94.06-17.26-1.79-23.65-5.47L183.66,668.23C176,663.79,172,657.16,172.26,650,172.54,642.3,177.72,634.89,186.89,629.6Z" style="opacity:0.545454545153512"/><path d="M187.62,630.86l168.05-64.64c9.23-5.33,21.34-7.73,32.43-6.89a57.13,57.13,0,0,1,13.71,3.2c1.68.56,10.45,5.21,11.84,6L533.8,638.94a35.27,35.27,0,0,1,3.58,2.37c8.5,6.44,9,16.09,1.51,24.14,0,4.07-15.83,20.56-20.23,23.1l-91.95,87.76c-7.95,4.59-18,7.05-27.85,7.13-8.67.08-16.8-1.7-23-5.27L184.39,667c-7.28-4.21-11-10.42-10.66-17.09C174.06,642.78,178.94,635.88,187.62,630.86Z" style="opacity:0.6363636354605358"/><path d="M188.35,632.13l168-64.64c9.19-5.31,21.33-7.63,32.28-6.67a55.94,55.94,0,0,1,13.57,3.44c1.25.43,10.65,5.55,11.7,6.15l119.47,70A30.33,30.33,0,0,1,537,642.8c8.28,6.53,8.06,16.24-.53,24,0,3.06-17.1,20.41-20.4,22.32L426,775c-7.73,4.46-17.5,6.85-27,6.94-8.41.09-16.34-1.61-22.34-5.07L185.12,665.69c-6.89-4-10.3-9.76-9.93-15.92C175.57,643.26,180.16,636.86,188.35,632.13Z" style="opacity:0.7272727257675595"/><path d="M189.08,633.39l168-64.64c9.15-5.28,21.32-7.51,32.13-6.43,5,.51,9.39,2.18,13.43,3.66.83.3,10.85,5.89,11.55,6.29L533,641.88a25.58,25.58,0,0,1,3.5,2.41c8.06,6.62,7.09,16.4-2.57,23.83,0,2-18.37,20.26-20.58,21.53l-88.14,84.13c-7.5,4.33-17,6.64-26.24,6.74-8.14.09-15.87-1.53-21.68-4.88L185.85,664.43c-6.49-3.75-9.61-9.11-9.19-14.77C177.09,643.74,181.37,637.84,189.08,633.39Z" style="opacity:0.8181818160745833"/><path d="M189.81,634.66,357.86,570c9.11-5.26,21.31-7.41,32-6.2,5,.56,9.31,2.36,13.31,3.88.41.15,11,6.24,11.39,6.44l118.13,69.21a22.7,22.7,0,0,1,3.46,2.42c7.84,6.71,6.12,16.56-4.61,23.69,0,1-19.65,20.1-20.75,20.74l-86.24,82.31c-7.28,4.2-16.52,6.43-25.43,6.55-7.89.1-15.41-1.45-21-4.69L186.58,663.16c-6.1-3.52-8.92-8.45-8.45-13.6C178.6,644.22,182.59,638.83,189.81,634.66Z" style="opacity:0.9090909063816071"/><path d="M378.8,773.11,187.32,661.9c-11.54-6.66-10.09-18.29,3.22-26l168-64.65c13.32-7.69,33.46-8.52,45-1.86l128.69,75.4c11.53,6.65,10.09,18.28-3.23,26L423.79,771.25C410.47,778.93,390.33,779.77,378.8,773.11Z"/></g><path d="M378.8,772.84,187.32,661.63c-5.14-3-7.71-6.92-7.79-11.07V636.09c.09-5.05,3.82,3.72,11-.43l168-64.65c13.32-7.68,33.46-8.52,45-1.86l128.69,75.4c3.85,2.22,6.65-7.21,7.64-4.21.34,1,.12,14.23.14,15.26.11,5.18-3.62,10.66-11,14.92L423.79,771C410.47,778.67,390.33,779.5,378.8,772.84Z" style="fill:url(#b)"/><path d="M378.8,758.64,187.32,647.44c-11.54-6.66-10.09-18.29,3.22-26l168-64.64c13.32-7.69,33.46-8.53,45-1.87l128.69,75.4c11.53,6.66,10.09,18.28-3.23,26L423.79,756.78C410.47,764.47,390.33,765.3,378.8,758.64Z" style="fill:url(#c)"/><path d="M532.27,630.35,403.58,555c-11.53-6.66-31.67-5.82-45,1.87l-84.66,32.57a21.63,21.63,0,0,0,2.63,1.81L468,702.41a32.25,32.25,0,0,0,9.16,3.39L529,656.32C542.36,648.63,543.8,637,532.27,630.35Z" style="mix-blend-mode:multiply;opacity:0.818182;fill:url(#d)"/><path d="M529,653.91,423.79,754.37c-13.32,7.69-33.46,8.52-45,1.86L187.32,645c-4.79-2.76-7.31-6.38-7.7-10.22-.6,4.71,1.91,9.3,7.7,12.64L378.8,758.64c11.53,6.66,31.67,5.83,45-1.86L529,656.32c7.79-4.49,11.49-10.34,10.93-15.75C539.37,645.26,535.69,650.08,529,653.91Z" style="mix-blend-mode:screen;opacity:0.6000000000000001;fill:url(#e)"/><path d="M629,759.26,158.7,487.53c-24-13.88-43.54-51.12-43.54-83.18V44.68c0-32,19.49-46.79,43.54-32.9L629,283.51c24,13.88,43.53,51.12,43.53,83.18V726.35C672.5,758.41,653,773.14,629,759.26Z" style="fill:url(#f)"/><path d="M634.58,734.22,170.93,466.35c-19.35-12.29-31.32-36.86-31.32-62v-362a7.72,7.72,0,0,1,11.62-6.65l1.37.8L616.74,304.68c23,13.27,31.31,36.87,31.31,62V727.57a8.33,8.33,0,0,1-12.46,7.23Z" style="fill:url(#g)"/><path d="M616.74,304.68,152.6,36.47l-1.37-.8a7.72,7.72,0,0,0-11.62,6.65v362c0,25.14,12,49.71,31.32,62L634.58,734.22l1,.58a8.33,8.33,0,0,0,12.46-7.23V366.69C648.05,341.55,639.77,318,616.74,304.68Zm26.42,422.89a3.46,3.46,0,0,1-3.45,3.45,3.28,3.28,0,0,1-1.7-.47L173.37,462.12C155.9,451,144.5,428.29,144.5,404.35v-362a2.85,2.85,0,0,1,2.85-2.83,2.72,2.72,0,0,1,1.41.4l465.53,269c23.86,13.75,28.87,39,28.87,57.78Z" style="fill:#bcbec0;mix-blend-mode:multiply"/><path d="M641.31,277,171,5.22c-9.51-5.49-18.31-6.51-25.47-3.74-.91.36-13.05,6.8-13.91,7.27l-.06.05c7.44-3.62,16.85-3,27.11,3L629,283.51c24,13.88,43.53,51.12,43.53,83.18V726.35c0,20-7.59,33.26-19.14,37a7.27,7.27,0,0,0,3.81-1.3c.55-.32,13.73-7.75,14.25-8.12,8.27-5.79,13.42-17.69,13.42-34.17V360.13C684.84,328.08,665.35,290.84,641.31,277Z" style="fill:url(#h)"/><path d="M631.06,282.46,160.79,10.73c-9.86-5.69-18.93-6.5-26.23-3.35,6.23-1,13.39.52,21,4.92L625.83,284c24,13.88,43.54,51.12,43.54,83.18V726.87c0,18.92-6.81,31.73-17.32,36.26,13.44-2.13,22.54-15.92,22.54-37.82V365.64C674.59,333.58,655.1,296.35,631.06,282.46Z" style="mix-blend-mode:screen;opacity:0.6000000000000001;fill:url(#i)"/><path d="M335.66,475.36l-48.51-28c-13.4-7.73-24.25-24.86-24.25-38.25V231.24c0-13.4,10.85-18,24.25-10.25l48.51,28c13.39,7.73,24.25,24.86,24.25,38.26V465.11C359.91,478.5,349.05,483.09,335.66,475.36Zm153.6,64.43V361.93c0-13.4-10.86-30.52-24.25-38.26l-48.51-28c-13.39-7.74-24.25-3.15-24.25,10.25V483.78c0,13.39,10.86,30.52,24.25,38.25L465,550C478.4,557.77,489.26,553.18,489.26,539.79Z" style="fill:#fff"/></g></svg>