<svg xmlns="http://www.w3.org/2000/svg" xmlns:xlink="http://www.w3.org/1999/xlink" viewBox="0 0 800 800"><defs><linearGradient id="a" x1="627.05" x2="858.93" y1="629.96" y2="560.53" gradientUnits="userSpaceOnUse"><stop offset="0" stop-color="#1a103d"/><stop offset=".27" stop-color="#251b4c"/><stop offset=".78" stop-color="#403873"/><stop offset="1" stop-color="#4d4685"/></linearGradient><linearGradient id="b" x1="-420.39" x2="1234.93" y1="657.99" y2="286.92" xlink:href="#a"/><linearGradient id="c" x1="446.51" x2="394.67" y1="209.75" y2="308.55" xlink:href="#a"/><linearGradient id="d" x1="644.18" x2="758.73" y1="417.3" y2="383" gradientUnits="userSpaceOnUse"><stop offset="0" stop-color="#1a103d"/><stop offset=".33" stop-color="#241b4c"/><stop offset=".97" stop-color="#3f3873"/><stop offset="1" stop-color="#413a75"/></linearGradient><linearGradient id="e" x1="-331.84" x2="1131.06" y1="432.96" y2="105.02" xlink:href="#d"/><linearGradient id="f" x1="232.7" x2="464.18" y1="-63.11" y2="329.7" gradientUnits="userSpaceOnUse"><stop offset="0" stop-color="#251c4d"/><stop offset=".59" stop-color="#3c346d"/><stop offset="1" stop-color="#4d4685"/></linearGradient><linearGradient id="g" x1="292.32" x2="229.61" y1="144.25" y2="253.22" gradientUnits="userSpaceOnUse"><stop offset="0" stop-color="#fff"/><stop offset="1" stop-color="#bcbcd6"/></linearGradient><linearGradient id="h" x1="375.57" x2="312.86" y1="192.16" y2="301.12" xlink:href="#g"/><linearGradient id="i" x1="458.81" x2="396.1" y1="240.06" y2="349.03" xlink:href="#g"/><linearGradient id="j" x1="542.06" x2="479.35" y1="287.97" y2="396.94" xlink:href="#g"/><linearGradient id="k" x1="625.3" x2="562.6" y1="335.88" y2="444.84" xlink:href="#g"/><radialGradient id="l" cx="582.41" cy="283.61" r="191.36" gradientUnits="userSpaceOnUse"><stop offset="0" stop-color="#fff"/><stop offset="1"/></radialGradient><linearGradient id="m" x1="645.79" x2="749.49" y1="206.31" y2="175.26" gradientTransform="matrix(1, -0.18, 0, 1, 0, 163.07)" xlink:href="#d"/><linearGradient id="n" x1="-325.62" x2="1124.56" y1="222.22" y2="-102.86" gradientTransform="matrix(1, -0.18, 0, 1, 0, 163.07)" xlink:href="#d"/><linearGradient id="o" x1="445.81" x2="382.77" y1="-59.84" y2="60.31" gradientTransform="matrix(1, -0.18, 0, 1, 0, 163.07)" xlink:href="#f"/><linearGradient id="p" x1="245.5" x2="310.55" y1="117.69" y2="117.69" xlink:href="#g"/><linearGradient id="q" x1="328.61" x2="393.66" y1="150.63" y2="150.63" xlink:href="#g"/><linearGradient id="r" x1="411.73" x2="476.78" y1="183.57" y2="183.57" xlink:href="#g"/><linearGradient id="s" x1="494.85" x2="559.9" y1="216.51" y2="216.51" xlink:href="#g"/><linearGradient id="t" x1="577.96" x2="643.01" y1="249.45" y2="249.45" xlink:href="#g"/><radialGradient id="u" cx="568.36" cy="163.21" r="174.46" xlink:href="#l"/><linearGradient id="v" x1="196.34" x2="302.01" y1="114.85" y2="92.27" xlink:href="#d"/><linearGradient id="w" x1="74.98" x2="197.3" y1="174.09" y2="102.13" xlink:href="#a"/><linearGradient id="x" x1="136.02" x2="144.01" y1="67.08" y2="95.26" xlink:href="#g"/><linearGradient id="y" x1="136.02" x2="144.01" y1="135.51" y2="163.69" xlink:href="#g"/><linearGradient id="z" x1="184.83" x2="192.83" y1="161.7" y2="189.89" xlink:href="#g"/><radialGradient id="aa" cx="-1032.97" cy="-5229.7" r="65.33" gradientTransform="matrix(0.48, -0.2, 0.17, 0.41, 2029.9, 2345.26)" gradientUnits="userSpaceOnUse"><stop offset="0" stop-color="#7c1dc9"/><stop offset=".04" stop-color="#761cbf" stop-opacity=".95"/><stop offset=".39" stop-color="#44106e" stop-opacity=".55"/><stop offset=".68" stop-color="#1f0733" stop-opacity=".25"/><stop offset=".89" stop-color="#09020e" stop-opacity=".07"/><stop offset="1" stop-opacity="0"/></radialGradient><radialGradient id="ab" cx="694.68" cy="600.63" r="178.65" xlink:href="#l"/></defs><g style="isolation:isolate"><polygon points="649.49 453.61 649.49 800 673.18 786.45 673.18 439.4 649.49 453.61" style="fill:url(#a)"/><polygon points="649.59 453.61 649.59 800 129.15 499.98 129.15 152.93 649.59 453.61" style="fill:url(#b)"/><polygon points="129.15 152.93 649.59 453.61 673.18 439.4 152.58 138.95 129.15 152.93" style="fill:url(#c)"/><polygon points="643.28 384.47 643.28 461.27 678.96 440.68 678.96 363.19 643.28 384.47" style="fill:url(#d)"/><polygon points="643.38 384.47 643.38 461.27 124.23 161.28 124.23 83.8 643.38 384.47" style="fill:url(#e)"/><polygon points="124.23 83.8 643.38 384.47 678.96 363.19 159.63 62.77 124.23 83.8" style="fill:url(#f)"/><polygon points="244.61 231.46 207.9 210.26 274.19 171.45 310.9 192.66 244.61 231.46" style="fill:url(#g)"/><polygon points="327.9 279.39 291.18 258.19 357.37 219.37 394.08 240.57 327.9 279.39" style="fill:url(#h)"/><polygon points="411.19 327.32 374.47 306.12 440.55 267.29 477.27 288.49 411.19 327.32" style="fill:url(#i)"/><polygon points="494.48 375.25 457.76 354.05 523.73 315.21 560.45 336.41 494.48 375.25" style="fill:url(#j)"/><polygon points="577.76 423.19 541.05 401.98 606.92 363.13 643.63 384.33 577.76 423.19" style="fill:url(#k)"/><polygon points="198.99 127.96 643.42 379.02 678.96 363.19 646.58 384.82 643.28 461.27 640.68 385.29 198.99 127.96" style="mix-blend-mode:color-dodge;fill:url(#l)"/><polygon points="643.28 234.67 643.28 290.91 678.96 264.06 678.96 207.15 643.28 234.67" style="fill:url(#m)"/><polygon points="643.38 234.65 643.38 290.89 124.23 84.16 124.23 27.23 643.38 234.65" style="fill:url(#n)"/><polygon points="124.23 27.23 643.38 234.65 678.96 207.15 159.63 .01 124.23 27.23" style="fill:url(#o)"/><polygon points="282.21 91.5 245.5 76.73 273.83 143.87 310.55 158.64 282.21 91.5" style="fill:url(#p)"/><polygon points="365.33 124.4 328.62 109.63 356.95 176.86 393.66 191.63 365.33 124.4" style="fill:url(#q)"/><polygon points="448.45 157.29 411.73 142.53 440.06 209.84 476.78 224.61 448.45 157.29" style="fill:url(#r)"/><polygon points="531.57 190.19 494.85 175.42 523.18 242.83 559.9 257.6 531.57 190.19" style="fill:url(#s)"/><polygon points="614.68 223.09 577.96 208.32 606.29 275.81 643.01 290.58 614.68 223.09" style="fill:url(#t)"/><polygon points="134.29 32.06 641.94 230.6 675.72 209.04 645.63 237.17 643.38 287.97 639.07 235.73 134.29 32.06" style="mix-blend-mode:color-dodge;fill:url(#u)"/><polygon points="123.83 33.77 121.14 35.03 124.64 160.6 205.45 209.48 208.24 207.86 208.24 151.02 165.33 56.94 123.83 33.77" style="fill:url(#v)"/><polygon points="121.05 34.84 121.05 160.96 205.45 209.48 205.45 152.09 162.54 58.02 121.05 34.84" style="fill:url(#w)"/><path d="M146.82,78.17c0,3.8-3.07,5.1-6.87,2.9s-6.87-7-6.87-10.83,3.08-5.09,6.87-2.9S146.82,74.38,146.82,78.17Z" style="fill:#a7a9ac"/><path d="M146.82,146.61c0,3.79-3.07,5.09-6.87,2.9s-6.87-7-6.87-10.83,3.08-5.1,6.87-2.91S146.82,142.81,146.82,146.61Z" style="fill:#a7a9ac"/><path d="M195.63,172.8c0,3.79-3.07,5.09-6.86,2.9s-6.87-7-6.87-10.83,3.07-5.1,6.87-2.9S195.63,169,195.63,172.8Z" style="fill:#a7a9ac"/><path d="M145.07,78.76c0,3.79-3.07,5.09-6.86,2.9s-6.87-7-6.87-10.83,3.07-5.1,6.87-2.91S145.07,75,145.07,78.76Z" style="fill:url(#x)"/><path d="M145.07,147.18c0,3.8-3.07,5.1-6.86,2.91s-6.87-7-6.87-10.84,3.07-5.09,6.87-2.9S145.07,143.39,145.07,147.18Z" style="fill:url(#y)"/><path d="M193.89,173.38c0,3.8-3.08,5.1-6.87,2.9s-6.87-7-6.87-10.83,3.07-5.1,6.87-2.9S193.89,169.59,193.89,173.38Z" style="fill:url(#z)"/><path d="M378,400.85V547.17l-28.23-16.3V468.42l-66.36-38.31v62.44L255,476.13V329.82l28.44,16.42v59.14l66.36,38.31V384.55Z" style="fill:#fff"/><path d="M494.52,528.48l-82.29-96.15c-6.69-7.81-16.93-9.89-16.93-.12v97.27c0,8.77,9.52,19.55,16.93,19.43l82.29-1.12c7.34-.08,7.36-10.73,0-19.31Z" style="fill:#fff"/><path d="M675.83,370.36c6.14,14.95-2.91,32.83-20.21,39.94s-36.3.76-42.45-14.19,2.91-32.82,20.21-39.93S669.69,355.42,675.83,370.36Z" style="mix-blend-mode:color-dodge;fill:url(#aa)"/><rect width="3.78" height="322.3" x="647" y="458.2" style="mix-blend-mode:color-dodge;fill:url(#ab)"/></g></svg>